Coordinates
version=1
nRows=41
nColumns=38
inDegrees=no

Units are S.I. units (second, meters, Newtons, ...)
If the header above contains a line with 'inDegrees', this indicates whether rotational values are in degrees (yes) or radians (no).

endheader
time	pelvis_tilt	pelvis_list	pelvis_rotation	pelvis_tx	pelvis_ty	pelvis_tz	hip_flexion_r	hip_adduction_r	hip_rotation_r	knee_angle_r	ankle_angle_r	subtalar_angle_r	mtp_angle_r	hip_flexion_l	hip_adduction_l	hip_rotation_l	knee_angle_l	ankle_angle_l	subtalar_angle_l	mtp_angle_l	lumbar_extension	lumbar_bending	lumbar_rotation	arm_flex_r	arm_add_r	arm_rot_r	elbow_flex_r	pro_sup_r	wrist_flex_r	wrist_dev_r	arm_flex_l	arm_add_l	arm_rot_l	elbow_flex_l	pro_sup_l	wrist_flex_l	wrist_dev_l
1.15	0.409349	1.50907	1.18769	0.537494	0.694748	1.04349	-0.156868	-0.0105986	-0.183623	0.0869201	-0.0864165	0	0	0.351607	-0.0991433	-0.373011	0.113645	-0.154439	0	0	-0.270952	-0.0132151	0.0832307	-0.112561	-0.411405	0.429025	0.714613	0.975957	0	0	-0.0756369	-0.558884	0.341131	0.682303	1.18195	0	0
1.16	0.416069	1.50147	1.1774	0.535741	0.706747	1.04048	-0.159233	-0.0112875	-0.182783	0.092849	-0.0794406	0	0	0.353528	-0.0905198	-0.34969	0.051495	-0.158581	0	0	-0.264457	-0.0106954	0.0858215	-0.11551	-0.413949	0.425474	0.722082	0.979193	0	0	-0.0757541	-0.559672	0.340651	0.682267	1.1832	0	0
1.17	0.421051	1.49448	1.17003	0.533784	0.719018	1.03746	-0.162295	-0.0123548	-0.183793	0.0994783	-0.0728154	0	0	0.357233	-0.0838977	-0.331578	0.00215682	-0.162416	0	0	-0.258227	-0.00828966	0.0873517	-0.118624	-0.415667	0.421571	0.728617	0.981063	0	0	-0.0762308	-0.560428	0.339165	0.682082	1.18415	0	0
1.18	0.427775	1.48988	1.16197	0.531658	0.731429	1.03469	-0.168049	-0.0141481	-0.184748	0.106012	-0.0702573	0	0	0.364978	-0.0800085	-0.33027	0	-0.160752	0	0	-0.25429	-0.00677573	0.0874731	-0.120116	-0.416732	0.419833	0.733458	0.98131	0	0	-0.0769756	-0.561964	0.337315	0.68268	1.18407	0	0
1.19	0.426682	1.48569	1.16295	0.529415	0.744064	1.03205	-0.173289	-0.0166047	-0.187043	0.115626	-0.0645977	0	0	0.373293	-0.0752792	-0.328388	0	-0.15383	0	0	-0.250418	-0.0059538	0.087096	-0.122902	-0.417113	0.416746	0.7391	0.981937	0	0	-0.0773538	-0.562958	0.333603	0.682438	1.18397	0	0
1.2	0.420069	1.48447	1.1708	0.527094	0.756834	1.02985	-0.181868	-0.0202932	-0.189478	0.124596	-0.0611914	0	0	0.379189	-0.0683172	-0.327411	0	-0.148668	0	0	-0.249584	-0.0072211	0.0852016	-0.124568	-0.415674	0.413437	0.743134	0.980621	0	0	-0.0773668	-0.565077	0.329608	0.682747	1.18354	0	0
1.21	0.420469	1.48505	1.17231	0.524751	0.769738	1.02824	-0.191327	-0.023938	-0.189512	0.133657	-0.0606468	0	0	0.38312	-0.0610704	-0.327241	0	-0.147799	0	0	-0.251047	-0.00890734	0.0830863	-0.124592	-0.413152	0.411178	0.744404	0.978706	0	0	-0.0759825	-0.567277	0.326639	0.681794	1.18261	0	0
1.22	0.585073	1.49387	1.01401	0.522012	0.78306	1.02919	-0.216061	-0.00187362	-0.208091	0.153034	-0.0641378	0	0	0.371927	-0.0616004	-0.325139	0	-0.151616	0	0	-0.270356	-0.00146883	0.0795834	-0.118245	-0.410666	0.410152	0.740555	0.973877	0	0	-0.0694556	-0.565629	0.320684	0.677645	1.18312	0	0
1.23	0.584465	1.49909	1.01714	0.519766	0.796575	1.02826	-0.22849	-0.00913984	-0.217536	0.167944	-0.0693727	0	0	0.370976	-0.05335	-0.327372	0.00630535	-0.15454	0	0	-0.276241	-0.00637471	0.077553	-0.118327	-0.406194	0.405994	0.740363	0.969545	0	0	-0.0686127	-0.568566	0.313866	0.678602	1.18422	0	0
1.24	0.587625	1.50481	1.016	0.517449	0.810597	1.02756	-0.241182	-0.016893	-0.221048	0.183013	-0.0773614	0	0	0.372384	-0.0482714	-0.339271	0.044665	-0.152039	0	0	-0.281386	-0.0115257	0.0760492	-0.117956	-0.400976	0.403718	0.736689	0.967105	0	0	-0.0691415	-0.571547	0.307338	0.679716	1.18569	0	0
1.25	0.365632	1.50263	1.23467	0.51572	0.824915	1.02461	-0.237807	-0.0515425	-0.206996	0.190485	-0.0873706	0	0	0.386982	-0.0354346	-0.352205	0.0865357	-0.148323	0	0	-0.267193	-0.0287698	0.076846	-0.122845	-0.392399	0.400385	0.731582	0.966934	0	0	-0.0773697	-0.579069	0.300816	0.685283	1.18413	0	0
1.26	0.588875	1.51629	1.01575	0.512842	0.840001	1.0264	-0.263366	-0.0332505	-0.216737	0.21949	-0.102008	0	0	0.369349	-0.0398601	-0.357008	0.122076	-0.151941	0	0	-0.287497	-0.0236515	0.0748659	-0.114934	-0.3888	0.405972	0.718967	0.963852	0	0	-0.0759988	-0.578816	0.295279	0.683749	1.1829	0	0
1.27	0.584412	1.52183	1.01813	0.510608	0.855145	1.02591	-0.271109	-0.0423889	-0.207215	0.24083	-0.119033	0	0	0.364733	-0.0348259	-0.360409	0.150321	-0.165233	0	0	-0.289518	-0.0307406	0.0756238	-0.112469	-0.383037	0.409457	0.707863	0.959397	0	0	-0.0819402	-0.58253	0.288776	0.686693	1.17995	0	0
1.28	0.544293	1.52428	1.05498	0.508393	0.870449	1.02534	-0.271928	-0.0523053	-0.194423	0.268123	-0.138351	0	0	0.362915	-0.0295712	-0.360178	0.169646	-0.190192	0	0	-0.286346	-0.0382072	0.0761309	-0.108575	-0.376356	0.416084	0.692371	0.953605	0	0	-0.0901433	-0.585358	0.281249	0.687908	1.17431	0	0
1.29	0.477702	1.52355	1.11952	0.506103	0.88583	1.02477	-0.26615	-0.0616941	-0.1793	0.301643	-0.161327	0	0	0.36498	-0.0260343	-0.35799	0.186815	-0.216276	0	0	-0.278513	-0.0453942	0.0746657	-0.103486	-0.368619	0.426535	0.673517	0.946875	0	0	-0.099767	-0.587564	0.273015	0.68725	1.1671	0	0
1.3	0.4097	1.51993	1.18737	0.503657	0.901175	1.02423	-0.254475	-0.0699133	-0.161747	0.340383	-0.189516	0	0	0.369693	-0.0253679	-0.353556	0.206735	-0.232139	0	0	-0.267112	-0.0512555	0.0714134	-0.0984165	-0.360591	0.438634	0.653546	0.938605	0	0	-0.109232	-0.58901	0.266293	0.684251	1.1587	0	0
1.31	0.36051	1.51678	1.23622	0.50105	0.916134	1.02397	-0.239719	-0.0784076	-0.141116	0.383902	-0.220928	0	0	0.372679	-0.0261463	-0.347275	0.230444	-0.233954	0	0	-0.257964	-0.0558211	0.0692419	-0.0948686	-0.354686	0.447559	0.638244	0.930418	0	0	-0.115815	-0.589521	0.262532	0.680392	1.15112	0	0
1.32	0.301503	1.51415	1.29424	0.498345	0.930677	1.02397	-0.221515	-0.088751	-0.120313	0.430905	-0.264276	0	0	0.375139	-0.0255079	-0.339233	0.258481	-0.223623	0	0	-0.250405	-0.0606888	0.0677527	-0.0908552	-0.350474	0.457563	0.624753	0.921085	0	0	-0.120134	-0.589691	0.261559	0.675999	1.14282	0	0
1.33	0.226387	1.51432	1.36773	0.495714	0.944721	1.02444	-0.20228	-0.101249	-0.100874	0.48141	-0.311547	0	0	0.374717	-0.0222327	-0.332382	0.288801	-0.206927	0	0	-0.248394	-0.0669523	0.0673674	-0.0865078	-0.347092	0.465483	0.614287	0.912196	0	0	-0.120529	-0.590502	0.263912	0.672005	1.13508	0	0
1.34	0.118031	1.51506	1.47502	0.493269	0.95852	1.02514	-0.179865	-0.114929	-0.0858752	0.536104	-0.366412	0	0	0.372861	-0.015872	-0.327842	0.317636	-0.187579	0	0	-0.248171	-0.0749386	0.0667265	-0.0816375	-0.34311	0.473007	0.603649	0.903989	0	0	-0.118311	-0.593226	0.270711	0.668194	1.12816	0	0
1.35	-0.14921	1.49781	1.73662	0.491814	0.971932	1.02299	-0.13899	-0.15581	-0.0434719	0.554593	-0.452137	0	0	0.389048	0.00217009	-0.326638	0.346621	-0.165343	0	0	-0.225879	-0.0968052	0.068707	-0.0853325	-0.336036	0.474433	0.598221	0.900352	0	0	-0.12289	-0.603679	0.281307	0.67124	1.11895	0	0
1.36	-0.257392	1.49554	1.84235	0.489665	0.985132	1.0235	-0.108938	-0.171029	-0.0307846	0.610176	-0.523221	0	0	0.384756	0.0121627	-0.326563	0.367842	-0.147546	0	0	-0.226712	-0.106354	0.0706138	-0.084381	-0.334198	0.475758	0.595957	0.89903	0	0	-0.117458	-0.609575	0.295631	0.671124	1.11328	0	0
1.37	-0.367611	1.49326	1.94867	0.487724	0.998051	1.02396	-0.0765166	-0.185698	-0.0188064	0.664044	-0.601864	0	0	0.376561	0.0223332	-0.328671	0.383505	-0.131133	0	0	-0.229233	-0.116056	0.0745131	-0.0867496	-0.334325	0.470802	0.601016	0.897719	0	0	-0.110745	-0.616261	0.311399	0.673301	1.11062	0	0
1.38	-0.473979	1.49138	2.05017	0.485999	1.01083	1.02445	-0.0440325	-0.199295	-0.0101522	0.716009	-0.686053	0	0	0.364002	0.0318707	-0.333538	0.393429	-0.115967	0	0	-0.233007	-0.125292	0.0798125	-0.0919537	-0.335913	0.461131	0.611897	0.896768	0	0	-0.103628	-0.623301	0.32724	0.677432	1.10865	0	0
1.39	-0.564976	1.48993	2.13558	0.484398	1.02352	1.02506	-0.0125475	-0.210774	-0.0024741	0.767927	-0.698132	0	0	0.348393	0.0401274	-0.341031	0.397881	-0.104528	0	0	-0.236813	-0.133056	0.0848692	-0.0971965	-0.338823	0.453184	0.624839	0.89671	0	0	-0.0987769	-0.629103	0.337483	0.682915	1.10885	0	0
1.4	-0.634419	1.48993	2.19931	0.482811	1.03611	1.02587	0.0169231	-0.219285	0.00740804	0.816783	-0.698132	0	0	0.330424	0.0461632	-0.350415	0.397473	-0.0933226	0	0	-0.241262	-0.137701	0.0901876	-0.103381	-0.342976	0.443505	0.640019	0.89782	0	0	-0.0935578	-0.6336	0.347521	0.687858	1.109	0	0
1.41	-0.67971	1.49143	2.23976	0.48118	1.04854	1.02679	0.0446217	-0.224887	0.0203159	0.860743	-0.698132	0	0	0.311867	0.0495241	-0.359712	0.394771	-0.0831738	0	0	-0.24566	-0.138781	0.0943301	-0.109804	-0.347917	0.43218	0.656221	0.899381	0	0	-0.0895112	-0.636712	0.354732	0.693134	1.10968	0	0
1.42	-0.697135	1.49329	2.25428	0.479409	1.0608	1.02776	0.071613	-0.228694	0.031697	0.899994	-0.698132	0	0	0.294195	0.0509558	-0.367641	0.390344	-0.0751057	0	0	-0.248414	-0.136992	0.0959804	-0.114918	-0.352975	0.423056	0.670527	0.901746	0	0	-0.0873173	-0.638593	0.358084	0.698524	1.1117	0	0
1.43	-0.683541	1.49588	2.24038	0.477319	1.07287	1.02894	0.098024	-0.230312	0.0393308	0.934722	-0.698132	0	0	0.277388	0.0504709	-0.373135	0.38431	-0.0690484	0	0	-0.250276	-0.131866	0.0951434	-0.118311	-0.358154	0.416191	0.681913	0.904494	0	0	-0.0852836	-0.638491	0.358934	0.702463	1.11396	0	0
1.44	-0.657965	1.49932	2.21804	0.474862	1.0849	1.03028	0.121584	-0.230887	0.0421397	0.965704	-0.665867	0	0	0.26041	0.0493518	-0.375879	0.377948	-0.0632754	0	0	-0.252515	-0.12438	0.0913895	-0.122095	-0.363323	0.408171	0.692887	0.908583	0	0	-0.0833446	-0.637217	0.357858	0.706224	1.11649	0	0
1.45	-0.619009	1.5026	2.18507	0.472205	1.09686	1.03174	0.144388	-0.231127	0.038846	0.991998	-0.61049	0	0	0.24403	0.0485975	-0.374907	0.371192	-0.058612	0	0	-0.254061	-0.115795	0.0853947	-0.125826	-0.367218	0.398681	0.701814	0.914627	0	0	-0.0814327	-0.635416	0.355197	0.709666	1.11996	0	0
1.46	-0.578401	1.50655	2.15254	0.469433	1.10886	1.03348	0.164916	-0.230684	0.0329573	1.01156	-0.568816	0	0	0.226255	0.0480263	-0.37204	0.363836	-0.0565492	0	0	-0.255887	-0.106658	0.0775766	-0.128058	-0.370445	0.392046	0.707524	0.919	0	0	-0.0799661	-0.633841	0.351421	0.713843	1.12253	0	0
1.47	-0.55465	1.51069	2.13705	0.466702	1.12079	1.0353	0.184604	-0.231928	0.0260936	1.02851	-0.53019	0	0	0.206681	0.0486456	-0.369003	0.355612	-0.0551771	0	0	-0.258708	-0.0986124	0.0696782	-0.130147	-0.373898	0.386036	0.713318	0.924599	0	0	-0.0787683	-0.633014	0.346951	0.719796	1.12494	0	0
1.48	-0.499698	1.51648	2.08888	0.464237	1.13251	1.03758	0.201988	-0.226416	0.0247578	1.03732	-0.497442	0	0	0.185882	0.0464005	-0.365318	0.345894	-0.0549483	0	0	-0.262836	-0.0888832	0.0639566	-0.129709	-0.377028	0.382129	0.715788	0.929003	0	0	-0.0756166	-0.631382	0.343455	0.724375	1.12689	0	0
1.49	-0.455247	1.52181	2.05022	0.461973	1.14416	1.03981	0.218816	-0.22355	0.0202848	1.04371	-0.458463	0	0	0.164347	0.045084	-0.361264	0.334738	-0.0555808	0	0	-0.267373	-0.080709	0.0590672	-0.129996	-0.379709	0.376808	0.719345	0.933425	0	0	-0.0728846	-0.630328	0.338686	0.73059	1.12943	0	0
1.5	-0.398309	1.52751	1.99807	0.459894	1.15581	1.04214	0.234322	-0.219337	0.0159016	1.04512	-0.422754	0	0	0.141901	0.0429942	-0.357886	0.322263	-0.0574001	0	0	-0.272395	-0.0727698	0.0553232	-0.129799	-0.381978	0.371884	0.721982	0.936744	0	0	-0.0700062	-0.629902	0.334665	0.737557	1.13251	0	0
1.51	-0.319559	1.53323	1.92339	0.457949	1.16744	1.04447	0.249176	-0.213539	0.0121673	1.04259	-0.388282	0	0	0.118873	0.0401223	-0.355959	0.308538	-0.0602444	0	0	-0.277655	-0.0649778	0.0523497	-0.128752	-0.384267	0.368516	0.7236	0.940936	0	0	-0.0674793	-0.629765	0.329812	0.745406	1.13642	0	0
1.52	-0.205243	1.53753	1.81236	0.456106	1.17897	1.04664	0.265358	-0.206985	0.00811086	1.0365	-0.35527	0	0	0.0968561	0.037209	-0.355087	0.293857	-0.0638004	0	0	-0.281764	-0.0575476	0.0499618	-0.126981	-0.386211	0.3662	0.723975	0.945057	0	0	-0.0654468	-0.6296	0.324117	0.753685	1.14094	0	0
1.53	-0.0578799	1.53991	1.66818	0.454331	1.1904	1.04855	0.281407	-0.198576	0.00541623	1.02576	-0.321098	0	0	0.076421	0.0343182	-0.354423	0.279499	-0.0676261	0	0	-0.284378	-0.0503814	0.047637	-0.125078	-0.387852	0.364448	0.723737	0.948612	0	0	-0.0636848	-0.629657	0.318303	0.762356	1.14623	0	0
1.54	0.130233	1.54127	1.48383	0.452606	1.20174	1.05033	0.296813	-0.192445	0.00168098	1.00682	-0.292821	0	0	0.0562163	0.0305457	-0.354254	0.265124	-0.0719089	0	0	-0.286995	-0.0426472	0.0451834	-0.122864	-0.389335	0.363498	0.722995	0.951908	0	0	-0.0615437	-0.6302	0.313189	0.771605	1.15279	0	0
1.55	0.375566	1.54349	1.24518	0.45061	1.21315	1.0522	0.308957	-0.181078	-0.0103564	0.994703	-0.260695	0	0	0.0331498	0.0261255	-0.352702	0.249518	-0.0765256	0	0	-0.292487	-0.0334367	0.0404449	-0.120537	-0.391278	0.363162	0.722941	0.954855	0	0	-0.0587632	-0.631146	0.308877	0.781643	1.15994	0	0
